<svg xmlns="http://www.w3.org/2000/svg" xml:space="preserve" width="64" height="64" viewBox="0 0 512 512"><path d="M380 104c23-27-11-65-40-45 10-34-36-54-54-24-5-35-55-35-60 0-18-30-64-10-54 24-29-20-63 18-40 45-35-7-50 41-19 56v23h286v-23c31-15 16-63-19-56M174 183l6 23-14 12 22 272 13 13h166l47-320z" style="fill:#fff7e6"/><path d="M256 206v297h55l21-297-17-22h-45zM174 183H98l47 320h56l-21-297z" style="fill:#ff6465"/><path d="m98 183 8 52h300l8-52H174z" style="opacity:.1"/><path d="M407 160H105a23 23 0 0 0 0 46h302q21-2 23-23c0-12-10-23-23-23" style="fill:#f2cc7b"/><path d="M247 99q7 1 11-6a15 15 0 0 1 19-9c8 3 12 12 10 19a9 9 0 0 0 14 9 20 20 0 0 1 36 13q1 8 9 9 8-1 8-9a38 38 0 0 0-50-35 33 33 0 0 0-62-3q-3 8 5 12"/><path d="m94 213 30 207a9 9 0 0 0 18-2l-30-203h60l19 280h-38l-6-42a9 9 0 0 0-18 2l7 50q2 6 9 7h222q7 0 9-7l29-206a9 9 0 0 0-17-2l-29 198h-38l19-280h60l-7 47a9 9 0 1 0 18 2l7-51a32 32 0 0 0 1-59q9-16 4-33-7-20-28-26 4-22-9-37t-36-12c-1-15-12-26-23-31q-18-8-38 3c-7-12-21-18-33-18s-26 6-33 18q-20-11-38-3c-11 5-22 16-23 31q-23-3-36 12t-9 37q-22 6-28 26-5 17 4 33a32 32 0 0 0 1 59m95 2h58v280h-38zm114 280h-38V215h58zM105 169h52q7-1 8-8a9 9 0 0 0-8-10h-41c-11-6-13-17-10-25s11-16 24-14a9 9 0 0 0 8-14c-9-11-5-22 1-28 6-7 16-11 28-4a9 9 0 0 0 13-9c-4-14 4-22 12-26 8-3 20-3 27 9a9 9 0 0 0 16-4c2-14 12-19 21-19s19 5 21 19a9 9 0 0 0 16 4c7-12 19-12 27-9 8 4 16 12 12 26a9 9 0 0 0 13 9c12-7 22-3 28 4 6 6 10 17 1 28a9 9 0 0 0 8 14c13-2 21 6 24 14s1 19-10 25H192q-8 1-9 9 1 8 9 9h215a14 14 0 0 1 2 28h-1l-1 1H105l-2-1a14 14 0 0 1 2-28"/></svg>