<svg xmlns="http://www.w3.org/2000/svg">
  <symbol id="logo" viewBox="0 0 32 32">
<path fill="#a9accc" d="M5.51 13.432l19.020-12.95 2.085 3.062-19.020 12.95-2.085-3.062z"></path>
<path fill="#000" opacity="0.1" d="M5.51 13.432l19.020-12.95 2.085 3.062-19.020 12.95-2.085-3.062z"></path>
<path fill="#a9accc" d="M5.51 13.432h23.010v3.704h-23.010v-3.704z"></path>
<path fill="#000" opacity="0.1" d="M8.52 11.383l-3.010 2.049v3.642c0.759 0 1.465-0.234 2.049-0.633 0.035-0.024 0.070-0.049 0.105-0.075 0.017-0.012 0.034-0.025 0.051-0.038 0.029-0.022 0.057-0.044 0.085-0.067 0.019-0.016 0.038-0.032 0.057-0.047 0.025-0.021 0.049-0.042 0.074-0.064 0.015-0.014 0.030-0.027 0.045-0.041 0.032-0.029 0.063-0.059 0.094-0.089 0.014-0.014 0.027-0.028 0.041-0.041 0.023-0.024 0.046-0.048 0.069-0.072 0.012-0.013 0.024-0.026 0.036-0.039 0.029-0.032 0.058-0.066 0.086-0.099 0.012-0.015 0.024-0.029 0.036-0.044 0.028-0.034 0.055-0.069 0.082-0.104 0.009-0.012 0.018-0.025 0.027-0.037 0.022-0.030 0.043-0.060 0.064-0.090 0.010-0.014 0.019-0.028 0.029-0.042 0.026-0.038 0.051-0.077 0.075-0.117 0.008-0.014 0.016-0.027 0.025-0.041 0.021-0.035 0.041-0.070 0.061-0.105 0.005-0.010 0.011-0.019 0.016-0.029 0.023-0.042 0.045-0.086 0.066-0.129 0.007-0.014 0.013-0.027 0.020-0.041 0.021-0.044 0.041-0.088 0.060-0.133 0.004-0.010 0.008-0.020 0.012-0.030 0.017-0.040 0.033-0.081 0.048-0.121 0.004-0.012 0.009-0.023 0.013-0.035 0.017-0.047 0.033-0.094 0.048-0.142 0.004-0.012 0.008-0.024 0.011-0.037 0.014-0.047 0.028-0.093 0.040-0.141 0.001-0.004 0.002-0.009 0.004-0.013 0.013-0.051 0.025-0.102 0.036-0.154 0.002-0.012 0.005-0.024 0.008-0.036 0.010-0.051 0.020-0.103 0.028-0.155 0.001-0.008 0.002-0.017 0.004-0.026 0.007-0.048 0.013-0.096 0.018-0.145 0.001-0.009 0.002-0.019 0.003-0.028 0.005-0.053 0.009-0.107 0.012-0.161 0.001-0.012 0.001-0.023 0.002-0.035 0.002-0.056 0.004-0.111 0.004-0.167-0-0.759-0.234-1.465-0.633-2.049z"></path>
<path fill="#a9accc" d="M7.541 13.432c0 1.121-0.909 2.030-2.030 2.030s-2.030-0.909-2.030-2.030c0-1.121 0.909-2.030 2.030-2.030s2.030 0.909 2.030 2.030z"></path>
<path fill="#464754" d="M6.337 13.432c0 0.456-0.37 0.826-0.827 0.826s-0.827-0.37-0.827-0.826c0-0.456 0.37-0.826 0.827-0.826s0.827 0.37 0.827 0.826z"></path>
<path fill="#464754" d="M5.51 16.040v13.725c0 0.967 0.784 1.751 1.751 1.751h19.507c0.967 0 1.751-0.784 1.751-1.751v-13.725h-23.009z"></path>
<path fill="#000" d="M6.337 13.432c0 0.456-0.37 0.826-0.827 0.826s-0.827-0.37-0.827-0.826c0-0.456 0.37-0.826 0.827-0.826s0.827 0.37 0.827 0.826z"></path>
<path fill="#000" d="M7.757 24.391c-0.267 0-0.484 0.217-0.484 0.484s0.216 0.484 0.484 0.484h18.517c0.267 0 0.484-0.217 0.484-0.484s-0.216-0.484-0.484-0.484h-3.939v-3.934h3.939c0.267 0 0.484-0.217 0.484-0.484s-0.216-0.484-0.484-0.484h-18.517c-0.267 0-0.484 0.217-0.484 0.484s0.216 0.484 0.484 0.484h3.938v3.934h-3.938zM12.662 20.457h8.705v3.934h-8.705v-3.934z"></path>
<path fill="#000" d="M7.757 29.614h18.517c0.267 0 0.484-0.217 0.484-0.484s-0.216-0.484-0.484-0.484h-18.517c-0.267 0-0.484 0.217-0.484 0.484s0.216 0.484 0.484 0.484z"></path>
<path fill="#000" d="M5.027 15.899v1.81c0 0.267 0.216 0.484 0.484 0.484s0.484-0.217 0.484-0.484v-1.186h8.073c0 0 0 0 0 0s0 0 0 0h7.407c0 0 0 0 0 0s0 0 0 0h3.703c0 0 0 0 0 0s0 0 0 0h2.858v9.867c0 0.267 0.216 0.484 0.484 0.484s0.484-0.217 0.484-0.484v-12.958c0-0.267-0.216-0.484-0.484-0.484h-14.858l13.225-9.004c0.106-0.072 0.179-0.183 0.203-0.309s-0.003-0.256-0.075-0.362l-2.084-3.062c-0.15-0.221-0.451-0.278-0.672-0.128l-16.982 11.561c-0.454-0.449-1.078-0.727-1.766-0.727-1.386 0-2.514 1.128-2.514 2.514 0 1.221 0.875 2.241 2.030 2.467zM14.963 13.916l1.64 1.64h-2.335l-1.64-1.64h2.335zM18.666 13.916l1.64 1.64h-2.335l-1.64-1.64h2.335zM22.37 13.916l1.64 1.64h-2.335l-1.64-1.64h2.335zM26.073 13.916l1.64 1.64h-2.335l-1.64-1.64h2.335zM11.259 13.916l1.64 1.64h-6.045c0.010-0.006 0.019-0.013 0.029-0.019 0.42-0.274 0.753-0.676 0.948-1.139 0.063-0.151 0.112-0.31 0.144-0.47 0.001-0.004 0.002-0.008 0.003-0.013h3.282zM28.036 14.511l-0.595-0.595h0.595v0.595zM13.596 8.513l3.802 0.722-1.931 1.314-3.802-0.722 1.931-1.314zM16.658 6.429l3.802 0.722-1.931 1.314-3.802-0.722 1.931-1.314zM19.719 4.345l3.802 0.722-1.931 1.314-3.802-0.722 1.931-1.314zM24.651 4.297l-3.802-0.722 1.931-1.314 2.727 0.518 0.435 0.639-1.291 0.879zM24.403 1.156l0.335 0.492-0.827-0.157 0.492-0.335zM10.535 10.597l3.802 0.722-2.394 1.63h-3.965c-0.001-0.005-0.002-0.011-0.004-0.016-0.010-0.051-0.151-0.49-0.152-0.489l2.713-1.847zM5.51 11.886c0.832 0 1.544 0.709 1.547 1.541 0 0.002 0 0.004 0 0.005 0 0.84-0.708 1.547-1.547 1.547-0.853-0-1.546-0.694-1.546-1.547s0.694-1.547 1.547-1.547z"></path>
<path fill="#000" d="M5.51 19.16c-0.267 0-0.484 0.217-0.484 0.484v10.122c0 1.232 1.002 2.235 2.235 2.235h19.507c1.232 0 2.235-1.002 2.235-2.235v-1.441c0-0.267-0.216-0.484-0.484-0.484s-0.484 0.217-0.484 0.484v1.441c0 0.699-0.569 1.267-1.267 1.267h-19.507c-0.699 0-1.267-0.569-1.267-1.267v-10.122c-0-0.267-0.216-0.484-0.484-0.484z"></path>
</symbol>
</svg>
